<svg width="232" height="258" viewBox="0 0 232 258" fill="none" xmlns="http://www.w3.org/2000/svg">
<path d="M24.1991 95.622L66.0694 111.076L88.644 98.484L84.607 88.042L24.1991 95.622Z" fill="#C0232C"/>
<path d="M167.234 143.985L208.232 160.614L171.421 165.523L147.531 161.661L164.392 143.985H167.234Z" fill="#C0232C"/>
<path d="M183.543 126.881L144.014 168.344L85.019 230.221L59.3557 257.137L71.035 230.221L97.89 168.344L105.104 151.724L50.9764 126.881L74.8198 103.357L137.543 41.4798L178.712 0.862503L162.067 41.4798L137.254 102.032L139.724 103.357L183.543 126.881Z" fill="#FED947"/>
<path d="M137.254 102.032L74.8198 103.357L137.543 41.4799H162.067L137.254 102.032Z" fill="#F8BE32"/>
<path d="M218.916 95.622H24.1991L59.9229 33.7451H231.436L218.916 95.622Z" fill="#E4222E"/>
<path d="M144.014 168.344L85.019 230.221H71.0349L97.89 168.344H144.014Z" fill="#F8BE32"/>
<path d="M195.712 222.491H0.995102L36.7189 160.614H208.232L195.712 222.491Z" fill="#E4222E"/>
<path d="M80.0508 66.9883V73H76.5352V55.9375H83.1914C84.4727 55.9375 85.5977 56.1719 86.5664 56.6406C87.543 57.1094 88.293 57.7773 88.8164 58.6445C89.3398 59.5039 89.6016 60.4844 89.6016 61.5859C89.6016 63.2578 89.0273 64.5781 87.8789 65.5469C86.7383 66.5078 85.1562 66.9883 83.1328 66.9883H80.0508ZM80.0508 64.1406H83.1914C84.1211 64.1406 84.8281 63.9219 85.3125 63.4844C85.8047 63.0469 86.0508 62.4219 86.0508 61.6094C86.0508 60.7734 85.8047 60.0977 85.3125 59.582C84.8203 59.0664 84.1406 58.8008 83.2734 58.7852H80.0508V64.1406ZM98.3438 66.7539H95.543V73H92.0273V55.9375H98.3672C100.383 55.9375 101.938 56.3867 103.031 57.2852C104.125 58.1836 104.672 59.4531 104.672 61.0938C104.672 62.2578 104.418 63.2305 103.91 64.0117C103.41 64.7852 102.648 65.4023 101.625 65.8633L105.316 72.8359V73H101.543L98.3438 66.7539ZM95.543 63.9062H98.3789C99.2617 63.9062 99.9453 63.6836 100.43 63.2383C100.914 62.7852 101.156 62.1641 101.156 61.375C101.156 60.5703 100.926 59.9375 100.465 59.4766C100.012 59.0156 99.3125 58.7852 98.3672 58.7852H95.543V63.9062ZM117.621 65.6055H110.871V70.1758H118.793V73H107.355V55.9375H118.77V58.7852H110.871V62.8516H117.621V65.6055ZM127.16 68.7695L131.027 55.9375H134.941L129 73H125.332L119.414 55.9375H123.316L127.16 68.7695ZM146.824 65.6055H140.074V70.1758H147.996V73H136.559V55.9375H147.973V58.7852H140.074V62.8516H146.824V65.6055ZM163.934 73H160.418L153.574 61.7734V73H150.059V55.9375H153.574L160.43 67.1875V55.9375H163.934V73ZM179.496 58.7852H174.27V73H170.754V58.7852H165.598V55.9375H179.496V58.7852Z" fill="white"/>
<path d="M71.3242 197.176H78.7891V200H67.8086V182.938H71.3242V197.176ZM94.082 191.855C94.082 193.535 93.7852 195.008 93.1914 196.273C92.5977 197.539 91.7461 198.516 90.6367 199.203C89.5352 199.891 88.2695 200.234 86.8398 200.234C85.4258 200.234 84.1641 199.895 83.0547 199.215C81.9453 198.535 81.0859 197.566 80.4766 196.309C79.8672 195.043 79.5586 193.59 79.5508 191.949V191.105C79.5508 189.426 79.8516 187.949 80.4531 186.676C81.0625 185.395 81.918 184.414 83.0195 183.734C84.1289 183.047 85.3945 182.703 86.8164 182.703C88.2383 182.703 89.5 183.047 90.6016 183.734C91.7109 184.414 92.5664 185.395 93.168 186.676C93.7773 187.949 94.082 189.422 94.082 191.094V191.855ZM90.5195 191.082C90.5195 189.293 90.1992 187.934 89.5586 187.004C88.918 186.074 88.0039 185.609 86.8164 185.609C85.6367 185.609 84.7266 186.07 84.0859 186.992C83.4453 187.906 83.1211 189.25 83.1133 191.023V191.855C83.1133 193.598 83.4336 194.949 84.0742 195.91C84.7148 196.871 85.6367 197.352 86.8398 197.352C88.0195 197.352 88.9258 196.891 89.5586 195.969C90.1914 195.039 90.5117 193.688 90.5195 191.914V191.082ZM106.012 196.484H99.8477L98.6758 200H94.9375L101.289 182.938H104.547L110.934 200H107.195L106.012 196.484ZM100.797 193.637H105.062L102.918 187.25L100.797 193.637ZM126.402 200H122.887L116.043 188.773V200H112.527V182.938H116.043L122.898 194.188V182.938H126.402V200ZM138.32 195.523C138.32 194.859 138.086 194.352 137.617 194C137.148 193.641 136.305 193.266 135.086 192.875C133.867 192.477 132.902 192.086 132.191 191.703C130.254 190.656 129.285 189.246 129.285 187.473C129.285 186.551 129.543 185.73 130.059 185.012C130.582 184.285 131.328 183.719 132.297 183.312C133.273 182.906 134.367 182.703 135.578 182.703C136.797 182.703 137.883 182.926 138.836 183.371C139.789 183.809 140.527 184.43 141.051 185.234C141.582 186.039 141.848 186.953 141.848 187.977H138.332C138.332 187.195 138.086 186.59 137.594 186.16C137.102 185.723 136.41 185.504 135.52 185.504C134.66 185.504 133.992 185.688 133.516 186.055C133.039 186.414 132.801 186.891 132.801 187.484C132.801 188.039 133.078 188.504 133.633 188.879C134.195 189.254 135.02 189.605 136.105 189.934C138.105 190.535 139.562 191.281 140.477 192.172C141.391 193.062 141.848 194.172 141.848 195.5C141.848 196.977 141.289 198.137 140.172 198.98C139.055 199.816 137.551 200.234 135.66 200.234C134.348 200.234 133.152 199.996 132.074 199.52C130.996 199.035 130.172 198.375 129.602 197.539C129.039 196.703 128.758 195.734 128.758 194.633H132.285C132.285 196.516 133.41 197.457 135.66 197.457C136.496 197.457 137.148 197.289 137.617 196.953C138.086 196.609 138.32 196.133 138.32 195.523Z" fill="white"/>
</svg>
