<svg width="232" height="258" viewBox="0 0 232 258" fill="none" xmlns="http://www.w3.org/2000/svg">
  <g clip-path="url(#clip0)">
    <path d="M24.1991 95.622L66.0694 111.076L88.644 98.484L84.607 88.042L24.1991 95.622Z" fill="#C0232C"/>
    <path d="M167.234 143.985L208.232 160.614L171.421 165.523L147.531 161.661L164.392 143.985H167.234Z" fill="#C0232C"/>
    <path d="M183.543 126.881L144.014 168.344L85.019 230.221L59.3557 257.137L71.035 230.221L97.89 168.344L105.104 151.724L50.9764 126.881L74.8198 103.357L137.543 41.4798L178.712 0.862503L162.067 41.4798L137.254 102.032L139.724 103.357L183.543 126.881Z" fill="#FED947"/>
    <path d="M137.254 102.032L74.8198 103.357L137.543 41.4799H162.067L137.254 102.032Z" fill="#F8BE32"/>
    <path d="M218.916 95.622H24.1991L59.9229 33.7451H231.436L218.916 95.622Z" fill="#E4222E"/>
    <path d="M144.014 168.344L85.019 230.221H71.0349L97.89 168.344H144.014Z" fill="#F8BE32"/>
    <path d="M195.712 222.491H0.995102L36.7189 160.614H208.232L195.712 222.491Z" fill="#E4222E"/>
    <path d="M84.0508 66.9883V73H80.5352V55.9375H87.1914C88.4727 55.9375 89.5977 56.1719 90.5664 56.6406C91.543 57.1094 92.293 57.7773 92.8164 58.6445C93.3398 59.5039 93.6016 60.4844 93.6016 61.5859C93.6016 63.2578 93.0273 64.5781 91.8789 65.5469C90.7383 66.5078 89.1562 66.9883 87.1328 66.9883H84.0508ZM84.0508 64.1406H87.1914C88.1211 64.1406 88.8281 63.9219 89.3125 63.4844C89.8047 63.0469 90.0508 62.4219 90.0508 61.6094C90.0508 60.7734 89.8047 60.0977 89.3125 59.582C88.8203 59.0664 88.1406 58.8008 87.2734 58.7852H84.0508V64.1406ZM102.344 66.7539H99.543V73H96.0273V55.9375H102.367C104.383 55.9375 105.938 56.3867 107.031 57.2852C108.125 58.1836 108.672 59.4531 108.672 61.0938C108.672 62.2578 108.418 63.2305 107.91 64.0117C107.41 64.7852 106.648 65.4023 105.625 65.8633L109.316 72.8359V73H105.543L102.344 66.7539ZM99.543 63.9062H102.379C103.262 63.9062 103.945 63.6836 104.43 63.2383C104.914 62.7852 105.156 62.1641 105.156 61.375C105.156 60.5703 104.926 59.9375 104.465 59.4766C104.012 59.0156 103.312 58.7852 102.367 58.7852H99.543V63.9062ZM121.621 65.6055H114.871V70.1758H122.793V73H111.355V55.9375H122.77V58.7852H114.871V62.8516H121.621V65.6055ZM131.16 68.7695L135.027 55.9375H138.941L133 73H129.332L123.414 55.9375H127.316L131.16 68.7695ZM150.824 65.6055H144.074V70.1758H151.996V73H140.559V55.9375H151.973V58.7852H144.074V62.8516H150.824V65.6055ZM167.934 73H164.418L157.574 61.7734V73H154.059V55.9375H157.574L164.43 67.1875V55.9375H167.934V73ZM183.496 58.7852H178.27V73H174.754V58.7852H169.598V55.9375H183.496V58.7852Z" fill="white"/>
    <path d="M74.2383 196.484H68.0742L66.9023 200H63.1641L69.5156 182.938H72.7734L79.1602 200H75.4219L74.2383 196.484ZM69.0234 193.637H73.2891L71.1445 187.25L69.0234 193.637ZM92.1914 185.785H86.9648V200H83.4492V185.785H78.293V182.938H92.1914V185.785ZM107.238 185.785H102.012V200H98.4961V185.785H93.3398V182.938H107.238V185.785ZM117.48 196.484H111.316L110.145 200H106.406L112.758 182.938H116.016L122.402 200H118.664L117.48 196.484ZM112.266 193.637H116.531L114.387 187.25L112.266 193.637ZM137.133 194.316C137 196.152 136.32 197.598 135.094 198.652C133.875 199.707 132.266 200.234 130.266 200.234C128.078 200.234 126.355 199.5 125.098 198.031C123.848 196.555 123.223 194.531 123.223 191.961V190.918C123.223 189.277 123.512 187.832 124.09 186.582C124.668 185.332 125.492 184.375 126.562 183.711C127.641 183.039 128.891 182.703 130.312 182.703C132.281 182.703 133.867 183.23 135.07 184.285C136.273 185.34 136.969 186.82 137.156 188.727H133.641C133.555 187.625 133.246 186.828 132.715 186.336C132.191 185.836 131.391 185.586 130.312 185.586C129.141 185.586 128.262 186.008 127.676 186.852C127.098 187.688 126.801 188.988 126.785 190.754V192.043C126.785 193.887 127.062 195.234 127.617 196.086C128.18 196.938 129.062 197.363 130.266 197.363C131.352 197.363 132.16 197.117 132.691 196.625C133.23 196.125 133.539 195.355 133.617 194.316H137.133ZM144.785 193.156L142.957 195.125V200H139.441V182.938H142.957V190.672L144.504 188.551L148.852 182.938H153.176L147.117 190.52L153.352 200H149.168L144.785 193.156ZM163.523 195.523C163.523 194.859 163.289 194.352 162.82 194C162.352 193.641 161.508 193.266 160.289 192.875C159.07 192.477 158.105 192.086 157.395 191.703C155.457 190.656 154.488 189.246 154.488 187.473C154.488 186.551 154.746 185.73 155.262 185.012C155.785 184.285 156.531 183.719 157.5 183.312C158.477 182.906 159.57 182.703 160.781 182.703C162 182.703 163.086 182.926 164.039 183.371C164.992 183.809 165.73 184.43 166.254 185.234C166.785 186.039 167.051 186.953 167.051 187.977H163.535C163.535 187.195 163.289 186.59 162.797 186.16C162.305 185.723 161.613 185.504 160.723 185.504C159.863 185.504 159.195 185.688 158.719 186.055C158.242 186.414 158.004 186.891 158.004 187.484C158.004 188.039 158.281 188.504 158.836 188.879C159.398 189.254 160.223 189.605 161.309 189.934C163.309 190.535 164.766 191.281 165.68 192.172C166.594 193.062 167.051 194.172 167.051 195.5C167.051 196.977 166.492 198.137 165.375 198.98C164.258 199.816 162.754 200.234 160.863 200.234C159.551 200.234 158.355 199.996 157.277 199.52C156.199 199.035 155.375 198.375 154.805 197.539C154.242 196.703 153.961 195.734 153.961 194.633H157.488C157.488 196.516 158.613 197.457 160.863 197.457C161.699 197.457 162.352 197.289 162.82 196.953C163.289 196.609 163.523 196.133 163.523 195.523Z" fill="white"/>
    <path d="M90.4756 122.772L97.2887 125.823L96.1346 128.4L86.1128 123.913L93.0854 108.34L96.294 109.777L90.4756 122.772ZM113.421 127.216C112.734 128.749 111.861 129.972 110.802 130.885C109.743 131.797 108.567 132.34 107.273 132.515C105.987 132.692 104.692 132.488 103.387 131.904C102.096 131.326 101.083 130.501 100.349 129.427C99.6139 128.353 99.2254 127.118 99.1832 125.721C99.1443 124.317 99.4564 122.864 100.12 121.364L100.465 120.594C101.151 119.061 102.029 117.836 103.098 116.919C104.178 115.999 105.359 115.454 106.643 115.284C107.936 115.11 109.232 115.313 110.529 115.894C111.827 116.475 112.838 117.304 113.563 118.382C114.297 119.456 114.678 120.7 114.703 122.115C114.739 123.527 114.415 124.995 113.732 126.521L113.421 127.216ZM110.485 125.055C111.216 123.422 111.479 122.05 111.275 120.94C111.07 119.83 110.426 119.032 109.342 118.547C108.265 118.064 107.246 118.113 106.285 118.693C105.326 119.265 104.481 120.359 103.75 121.975L103.41 122.734C102.698 124.324 102.438 125.689 102.63 126.827C102.822 127.966 103.467 128.781 104.565 129.273C105.641 129.755 106.657 129.705 107.611 129.122C108.569 128.532 109.413 127.429 110.145 125.814L110.485 125.055ZM122.417 136.316L116.791 133.797L114.285 136.527L110.873 134.999L123.643 122.022L126.616 123.353L125.473 141.536L122.061 140.009L122.417 136.316ZM118.821 131.586L122.714 133.329L123.367 126.624L118.821 131.586ZM139.591 147.857L136.382 146.421L134.724 133.378L130.136 143.624L126.927 142.187L133.9 126.615L137.108 128.051L138.768 141.121L143.365 130.853L146.563 132.285L139.591 147.857Z" fill="white"/>
  </g>
</svg>
